<svg width="82" height="61" viewBox="0 0 82 61" fill="none" xmlns="http://www.w3.org/2000/svg">
<path d="M42.0023 48.4105C41.383 49.029 41 49.8873 41 50.8313C41 52.5922 42.3374 54.0453 44.0519 54.2317H58.0008C64.6282 54.2317 70.6272 51.5742 74.9717 47.277C79.2413 43.051 81.9102 37.2416 81.994 30.8137C82 30.7071 82 30.5976 82 30.4911V0H74.7712C73.6312 3.92718 69.969 6.80079 65.6335 6.80079H59.5178C59.0151 6.76824 58.5094 6.75344 58.0008 6.75344H51.2328C50.2873 6.75344 49.4316 7.13521 48.8092 7.75373C48.1899 8.37225 47.8069 9.22753 47.8069 10.1686C47.8069 12.0508 49.3418 13.5779 51.2328 13.5779H58.0427C59.3472 13.5779 60.6158 13.7229 61.8366 13.9952C69.4544 15.7028 75.1422 22.4414 75.1422 30.4911C75.1422 35.1611 73.2303 39.3931 70.1335 42.4532C67.0398 45.5132 62.7641 47.4073 58.0427 47.4073H44.4259C43.4804 47.4073 42.6247 47.789 42.0023 48.4105Z" fill="#ffffff"/>
<path d="M39.9977 12.5895C40.617 11.971 41 11.1127 41 10.1687C41 8.4078 39.6625 6.95472 37.9481 6.76827H23.9992C17.3718 6.76827 11.3728 9.42585 7.02831 13.723C2.75866 17.949 0.08976 23.7584 0.00598309 30.1863C0 30.2928 0 30.4023 0 30.5088V61H7.22878C8.36875 57.0728 12.031 54.1992 16.3665 54.1992H22.4822C22.9849 54.2318 23.4905 54.2466 23.9992 54.2466H30.7672C31.7127 54.2466 32.5684 53.8648 33.1908 53.2463C33.8101 52.6278 34.1931 51.7725 34.1931 50.8314C34.1931 48.9492 32.6582 47.4221 30.7672 47.4221H23.9573C22.6528 47.4221 21.3841 47.2771 20.1634 47.0048C12.5456 45.2972 6.85777 38.5586 6.85777 30.5089C6.85777 25.8389 8.76968 21.6069 11.8664 18.5468C14.9602 15.4868 19.2359 13.5927 23.9573 13.5927H37.5741C38.5196 13.5927 39.3753 13.211 39.9977 12.5895Z" fill="#ffffff"/>
<path d="M63.7156 25.9868C63.7156 27.2355 62.6921 28.2478 61.4297 28.2478C60.1672 28.2478 59.1437 27.2355 59.1437 25.9868C59.1437 24.7381 60.1672 23.7258 61.4297 23.7258C62.6921 23.7258 63.7156 24.7381 63.7156 25.9868Z" fill="#ffffff"/>
<path d="M59.1437 30.5059C59.1437 31.7546 58.1203 32.7669 56.8578 32.7669C55.5953 32.7669 54.5719 31.7546 54.5719 30.5059C54.5719 29.2572 55.5953 28.2449 56.8578 28.2449C58.1203 28.2449 59.1437 29.2572 59.1437 30.5059Z" fill="#ffffff"/>
<path d="M68.2844 30.5059C68.2844 31.7546 67.261 32.7669 65.9985 32.7669C64.736 32.7669 63.7126 31.7546 63.7126 30.5059C63.7126 29.2572 64.736 28.2449 65.9985 28.2449C67.261 28.2449 68.2844 29.2572 68.2844 30.5059Z" fill="#ffffff"/>
<path d="M63.7156 35.028C63.7156 36.2767 62.6921 37.289 61.4297 37.289C60.1672 37.289 59.1437 36.2767 59.1437 35.028C59.1437 33.7793 60.1672 32.767 61.4297 32.767C62.6921 32.767 63.7156 33.7793 63.7156 35.028Z" fill="#ffffff"/>
<path d="M30.1868 32.1069C30.6026 31.6985 30.857 31.1333 30.857 30.5088C30.857 29.26 29.8337 28.2478 28.5711 28.2478H26.2851V25.9868C26.2851 25.3624 26.0308 24.7971 25.6149 24.3887C25.202 23.9774 24.6305 23.7258 23.9992 23.7258C22.7366 23.7258 21.7133 24.7379 21.7133 25.9868V28.2478H19.4274C18.796 28.2478 18.2246 28.4994 17.8117 28.9107C17.3958 29.3191 17.1414 29.8844 17.1414 30.5088C17.1414 31.7577 18.1647 32.7699 19.4274 32.7699H21.7133V35.0279C21.7133 36.2768 22.7366 37.2889 23.9992 37.2889C25.2618 37.2889 26.2851 36.2768 26.2851 35.0279V32.7699H28.5711C29.2024 32.7699 29.7739 32.5183 30.1868 32.1069Z" fill="#ffffff"/>
</svg>
